<svg width="20" height="21" viewBox="0 0 20 21" fill="none" xmlns="http://www.w3.org/2000/svg">
<path d="M9.85825 8L12.4999 10.6333C12.4999 10.5917 12.4999 10.5417 12.4999 10.5C12.4999 9.83696 12.2365 9.20107 11.7677 8.73223C11.2988 8.26339 10.663 8 9.99992 8C9.94992 8 9.90825 8 9.85825 8ZM6.27492 8.66667L7.56659 9.95833C7.52492 10.1333 7.49992 10.3083 7.49992 10.5C7.49992 11.163 7.76331 11.7989 8.23215 12.2678C8.70099 12.7366 9.33688 13 9.99992 13C10.1833 13 10.3666 12.975 10.5416 12.9333L11.8333 14.225C11.2749 14.5 10.6583 14.6667 9.99992 14.6667C8.89485 14.6667 7.83504 14.2277 7.05364 13.4463C6.27224 12.6649 5.83325 11.6051 5.83325 10.5C5.83325 9.84167 5.99992 9.225 6.27492 8.66667ZM1.66659 4.05833L3.56659 5.95833L3.94159 6.33333C2.56659 7.41667 1.48325 8.83333 0.833252 10.5C2.27492 14.1583 5.83325 16.75 9.99992 16.75C11.2916 16.75 12.5249 16.5 13.6499 16.05L14.0083 16.4L16.4416 18.8333L17.4999 17.775L2.72492 3M9.99992 6.33333C11.105 6.33333 12.1648 6.77232 12.9462 7.55372C13.7276 8.33512 14.1666 9.39493 14.1666 10.5C14.1666 11.0333 14.0583 11.55 13.8666 12.0167L16.3083 14.4583C17.5583 13.4167 18.5583 12.05 19.1666 10.5C17.7249 6.84167 14.1666 4.25 9.99992 4.25C8.83325 4.25 7.71659 4.45833 6.66659 4.83333L8.47492 6.625C8.94992 6.44167 9.45825 6.33333 9.99992 6.33333Z" fill="#9D9EA1"/>
</svg>
