<svg width="104" height="44" viewBox="0 0 104 44" fill="none" xmlns="http://www.w3.org/2000/svg">
<path d="M25.6553 11.3617L20.8172 12.2067L24.1904 16.0417L26.6155 15.6084L25.6553 11.3617ZM17.1979 12.835L14.7727 13.2575L18.1582 17.0817L20.571 16.6592L17.1979 12.835ZM11.1657 13.875L8.74055 14.3192L12.126 18.1434L14.5388 17.7209L11.1657 13.875ZM5.12123 14.9584L3.91479 15.1642C3.27511 15.2767 2.7123 15.6079 2.34992 16.0852C1.98755 16.5626 1.85523 17.1469 1.98203 17.71L2.46214 19.8334L8.49434 18.7825L5.12123 14.9584ZM2.46214 19.8334V30.6667C2.46214 31.8692 3.5701 32.8334 4.92426 32.8334H24.6212C25.9877 32.8334 27.0833 31.8692 27.0833 30.6667V19.8334H2.46214Z" fill="white"/>
<path d="M40.7223 15.804C40.4237 15.868 40.189 15.9853 40.0183 16.156C39.9757 16.1987 39.933 16.2733 39.8903 16.38C39.869 16.4653 39.8477 16.5293 39.8263 16.572C39.7837 16.636 39.741 17.0093 39.6983 17.692C39.677 18.3747 39.6557 19.1853 39.6343 20.124C39.613 21.0627 39.6023 22.044 39.6023 23.068C39.6023 24.0707 39.6343 24.9453 39.6983 25.692C39.7623 26.3107 39.9223 26.9187 40.1783 27.516C40.4557 28.092 40.9037 28.4653 41.5223 28.636C41.9917 28.6787 42.429 28.6147 42.8343 28.444C43.261 28.252 43.581 27.9427 43.7943 27.516C44.029 27.0253 44.125 26.5133 44.0823 25.98C44.061 25.4253 44.1037 24.8813 44.2103 24.348C44.509 24.3907 44.8397 24.4013 45.2023 24.38C45.5863 24.3587 45.9703 24.348 46.3543 24.348C46.7383 24.348 47.1117 24.3587 47.4743 24.38C47.8583 24.4013 48.1997 24.4547 48.4983 24.54C48.861 25.6493 48.957 26.7587 48.7863 27.868C48.6157 28.956 48.2423 29.9373 47.6663 30.812C47.0903 31.6867 46.333 32.412 45.3943 32.988C44.477 33.5427 43.4317 33.8307 42.2583 33.852C41.4903 33.9587 40.701 33.9587 39.8903 33.852C39.0797 33.7667 38.3223 33.564 37.6183 33.244C36.9143 32.9027 36.317 32.4333 35.8263 31.836C35.357 31.2387 35.0797 30.492 34.9943 29.596C34.9517 28.828 34.9197 28.028 34.8983 27.196C34.877 26.364 34.8557 25.436 34.8343 24.412C34.8343 23.3667 34.8343 22.1933 34.8343 20.892C34.8557 19.5693 34.877 18.044 34.8983 16.316C34.8557 15.9533 34.8663 15.5907 34.9303 15.228C35.0157 14.844 35.1223 14.492 35.2503 14.172C35.4423 13.6173 35.677 13.1053 35.9543 12.636C36.253 12.1667 36.605 11.7507 37.0103 11.388C37.245 11.2173 37.501 11.0787 37.7783 10.972C38.0557 10.844 38.3437 10.7373 38.6423 10.652C39.6237 10.332 40.5943 10.204 41.5543 10.268C42.5143 10.332 43.4103 10.556 44.2423 10.94C45.0957 11.3027 45.8637 11.7933 46.5463 12.412C47.229 13.0307 47.773 13.7453 48.1783 14.556C48.5837 15.3453 48.829 16.2093 48.9143 17.148C48.9997 18.0867 48.8717 19.0467 48.5303 20.028C47.741 20.1987 46.9623 20.2627 46.1943 20.22C45.4477 20.156 44.669 20.0493 43.8583 19.9C43.7943 19.4947 43.7517 19.036 43.7303 18.524C43.7303 18.012 43.677 17.5427 43.5703 17.116C43.4637 16.668 43.261 16.3053 42.9623 16.028C42.685 15.7507 42.237 15.6227 41.6183 15.644C41.341 15.6867 41.0423 15.74 40.7223 15.804ZM62.5233 10.876C62.9287 10.876 63.2913 10.8867 63.6113 10.908L64.4753 33.308C64.1127 33.372 63.718 33.4147 63.2913 33.436C62.886 33.4573 62.4807 33.468 62.0753 33.468C61.6913 33.468 61.3073 33.468 60.9233 33.468C60.5607 33.468 60.2513 33.4787 59.9953 33.5H59.9633C59.8567 32.796 59.782 32.0707 59.7393 31.324C59.718 30.556 59.6967 29.7987 59.6753 29.052C59.6753 28.3053 59.6647 27.5587 59.6433 26.812C59.622 26.0653 59.5687 25.3507 59.4833 24.668L59.4513 24.636C58.8327 24.5293 58.214 24.476 57.5953 24.476C56.9767 24.476 56.358 24.5507 55.7393 24.7C55.6753 25.4467 55.6433 26.1827 55.6433 26.908C55.6647 27.6333 55.686 28.3587 55.7073 29.084C55.7287 29.8093 55.7287 30.524 55.7073 31.228C55.7073 31.9107 55.654 32.5933 55.5473 33.276C55.2913 33.4253 54.95 33.5 54.5233 33.5C54.0967 33.5 53.67 33.4787 53.2433 33.436C52.8167 33.3933 52.4113 33.3613 52.0273 33.34C51.6647 33.3187 51.3873 33.3613 51.1953 33.468C51.1527 32.8707 51.0993 32.06 51.0353 31.036C50.9927 29.9907 50.95 28.828 50.9073 27.548C50.8647 26.2467 50.822 24.8707 50.7793 23.42C50.758 21.9693 50.7367 20.5187 50.7153 19.068C50.694 17.596 50.6833 16.188 50.6833 14.844C50.7047 13.4787 50.726 12.252 50.7473 11.164V11.132H50.7793H50.8433C51.1633 11.196 51.494 11.2173 51.8353 11.196C52.198 11.1747 52.55 11.1533 52.8913 11.132C53.254 11.1107 53.606 11.1 53.9473 11.1C54.2887 11.1 54.6087 11.1427 54.9073 11.228C55.0993 12.7 55.1953 14.1293 55.1953 15.516C55.1953 16.9027 55.3233 18.2787 55.5793 19.644H55.6113C56.1447 19.772 56.7207 19.8147 57.3393 19.772C57.958 19.708 58.534 19.6547 59.0673 19.612H59.0993C59.2273 18.14 59.2913 16.764 59.2913 15.484C59.3127 14.204 59.2913 12.796 59.2273 11.26C59.4833 11.1747 59.7927 11.1 60.1553 11.036C60.5393 10.972 60.934 10.9293 61.3393 10.908C61.7447 10.8653 62.1393 10.8547 62.5233 10.876ZM69.5641 11.004C70.0761 11.0253 70.8121 11.0253 71.7721 11.004H72.5401V11.132C72.5401 12.9667 72.5081 14.812 72.4441 16.668C72.4014 18.524 72.3588 20.3907 72.3161 22.268C72.2948 24.124 72.2948 25.98 72.3161 27.836C72.3374 29.692 72.4014 31.5267 72.5081 33.34C72.3374 33.5107 71.9748 33.6067 71.4201 33.628C70.8868 33.6707 70.3001 33.6813 69.6601 33.66C69.0414 33.6387 68.4441 33.6067 67.8681 33.564C67.2921 33.5427 66.8974 33.564 66.6841 33.628C66.8334 31.708 66.8974 29.7773 66.8761 27.836C66.8548 25.8947 66.8121 23.9747 66.7481 22.076C66.7054 20.156 66.6734 18.268 66.6521 16.412C66.6521 14.5347 66.7481 12.7 66.9401 10.908V10.844C67.0468 10.8227 67.2494 10.8333 67.5481 10.876C67.8681 10.8973 68.1028 10.908 68.2521 10.908C68.6361 10.9293 69.0734 10.9613 69.5641 11.004ZM88.3406 30.012C88.3406 30.2253 88.3513 30.4173 88.3726 30.588C88.4153 31.356 88.4366 31.9427 88.4366 32.348C88.4366 32.732 88.4046 33.02 88.3406 33.212C88.2979 33.3827 88.2126 33.4787 88.0846 33.5C87.9566 33.5 87.7753 33.5 87.5406 33.5C87.3059 33.4787 86.9966 33.4787 86.6126 33.5C86.2499 33.5213 85.6206 33.5427 84.7246 33.564C83.8499 33.5853 82.6339 33.596 81.0766 33.596C79.5406 33.596 77.4819 33.5747 74.9006 33.532V32.956C74.9646 31.356 75.0179 29.916 75.0606 28.636C75.1033 27.3347 75.1246 26.1293 75.1246 25.02C75.1459 23.8893 75.1566 22.8013 75.1566 21.756C75.1566 20.7107 75.1459 19.644 75.1246 18.556C75.1033 17.468 75.0819 16.316 75.0606 15.1C75.0393 13.8627 75.0179 12.4973 74.9966 11.004C75.2099 10.9187 75.5406 10.8547 75.9886 10.812C76.4366 10.748 76.9166 10.716 77.4286 10.716C77.9406 10.716 78.4419 10.748 78.9326 10.812C79.4233 10.876 79.8179 10.972 80.1166 11.1C80.0739 12.4867 80.0526 13.916 80.0526 15.388C80.0739 16.8387 80.0953 18.3 80.1166 19.772C80.1379 21.244 80.1486 22.716 80.1486 24.188C80.1699 25.6387 80.1699 27.0467 80.1486 28.412V28.444C80.2979 28.4013 80.5753 28.3907 80.9806 28.412C81.4073 28.412 81.8979 28.4227 82.4526 28.444C83.0073 28.4653 83.5939 28.4973 84.2126 28.54C84.8526 28.5613 85.4499 28.5827 86.0046 28.604C86.5806 28.6253 87.0819 28.6467 87.5086 28.668C87.9566 28.668 88.2659 28.6573 88.4366 28.636C88.4366 28.8707 88.4259 29.1053 88.4046 29.34C88.3833 29.5533 88.3619 29.7773 88.3406 30.012ZM103.091 30.012C103.091 30.2253 103.101 30.4173 103.123 30.588C103.165 31.356 103.187 31.9427 103.187 32.348C103.187 32.732 103.155 33.02 103.091 33.212C103.048 33.3827 102.963 33.4787 102.835 33.5C102.707 33.5 102.525 33.5 102.291 33.5C102.056 33.4787 101.747 33.4787 101.363 33.5C101 33.5213 100.371 33.5427 99.4746 33.564C98.5999 33.5853 97.3839 33.596 95.8266 33.596C94.2906 33.596 92.2319 33.5747 89.6506 33.532V32.956C89.7146 31.356 89.7679 29.916 89.8106 28.636C89.8533 27.3347 89.8746 26.1293 89.8746 25.02C89.8959 23.8893 89.9066 22.8013 89.9066 21.756C89.9066 20.7107 89.8959 19.644 89.8746 18.556C89.8533 17.468 89.8319 16.316 89.8106 15.1C89.7893 13.8627 89.7679 12.4973 89.7466 11.004C89.9599 10.9187 90.2906 10.8547 90.7386 10.812C91.1866 10.748 91.6666 10.716 92.1786 10.716C92.6906 10.716 93.1919 10.748 93.6826 10.812C94.1733 10.876 94.5679 10.972 94.8666 11.1C94.8239 12.4867 94.8026 13.916 94.8026 15.388C94.8239 16.8387 94.8453 18.3 94.8666 19.772C94.8879 21.244 94.8986 22.716 94.8986 24.188C94.9199 25.6387 94.9199 27.0467 94.8986 28.412V28.444C95.0479 28.4013 95.3253 28.3907 95.7306 28.412C96.1573 28.412 96.6479 28.4227 97.2026 28.444C97.7573 28.4653 98.3439 28.4973 98.9626 28.54C99.6026 28.5613 100.2 28.5827 100.755 28.604C101.331 28.6253 101.832 28.6467 102.259 28.668C102.707 28.668 103.016 28.6573 103.187 28.636C103.187 28.8707 103.176 29.1053 103.155 29.34C103.133 29.5533 103.112 29.7773 103.091 30.012Z" fill="white"/>
</svg>
