<svg width="24" height="25" viewBox="0 0 24 25" fill="none" xmlns="http://www.w3.org/2000/svg">
<rect x="0.5" y="0.5" width="23" height="24" rx="11.5" stroke="#C1C2C4"/>
<path d="M12 6.66667L10.6067 8.06L12 9.45333M6.84667 6L6 6.84667L9.15333 10H6V14H8.66667L12 17.3333V12.8467L14.8333 15.6867C14.3867 16.0267 13.8867 16.3067 13.3333 16.4667V17.8467C14.2533 17.6333 15.0867 17.2133 15.7867 16.64L17.1533 18L18 17.1533L12 11.1533M16.6667 12C16.6667 12.6267 16.5333 13.2133 16.3067 13.76L17.3133 14.7667C17.7467 13.94 18 13 18 12C18 9.14667 16 6.76 13.3333 6.15333V7.52667C15.26 8.1 16.6667 9.88667 16.6667 12ZM15 12C15 10.82 14.3333 9.80667 13.3333 9.31333V10.7867L14.9667 12.42C15 12.2867 15 12.14 15 12Z" fill="#C1C2C4"/>
</svg>
