<svg width="49" height="48" viewBox="0 0 49 48" fill="none" xmlns="http://www.w3.org/2000/svg">
<path d="M38.333 6H10.333C9.27214 6 8.25473 6.42143 7.50458 7.17157C6.75444 7.92172 6.33301 8.93913 6.33301 10V38C6.33301 39.0609 6.75444 40.0783 7.50458 40.8284C8.25473 41.5786 9.27214 42 10.333 42H38.333C39.3939 42 40.4113 41.5786 41.1614 40.8284C41.9116 40.0783 42.333 39.0609 42.333 38V10C42.333 8.93913 41.9116 7.92172 41.1614 7.17157C40.4113 6.42143 39.3939 6 38.333 6ZM24.333 27H22.333V30H19.333V27H13.333V18H16.333V24H19.333V18H22.333V24H24.333V27ZM36.333 30H32.733L29.133 25.6V30H26.333V18H29.333V22.4L32.733 18H36.333L31.933 24L36.333 30Z" fill="white"/>
</svg>
