<svg width="34" height="24" viewBox="0 0 34 24" fill="none" xmlns="http://www.w3.org/2000/svg">
<rect x="0.200195" width="33.6" height="24" rx="4" fill="#016FD0"/>
<path fill-rule="evenodd" clip-rule="evenodd" d="M9.64746 16.438V12.6992H13.6271L14.0541 13.2529L14.4952 12.6992H28.9405V16.1801C28.9405 16.1801 28.5627 16.4342 28.1258 16.438H20.1272L19.6458 15.8486V16.438H18.0683V15.4319C18.0683 15.4319 17.8528 15.5724 17.3869 15.5724H16.8499V16.438H14.4615L14.0351 15.8724L13.6022 16.438H9.64746Z" fill="white"/>
<path fill-rule="evenodd" clip-rule="evenodd" d="M5.00098 9.88147L5.89841 7.80029H7.45043L7.95974 8.96608V7.80029H9.88904L10.1922 8.64289L10.4862 7.80029H19.1467V8.2239C19.1467 8.2239 19.602 7.80029 20.3502 7.80029L23.1603 7.81006L23.6608 8.9606V7.80029H25.2753L25.7197 8.46118V7.80029H27.3491V11.539H25.7197L25.2938 10.876V11.539H22.9217L22.6832 10.9497H22.0455L21.8108 11.539H20.2021C19.5583 11.539 19.1467 11.1241 19.1467 11.1241V11.539H16.7212L16.2398 10.9497V11.539H7.22051L6.98212 10.9497H6.34645L6.10975 11.539H5.00098L5.00098 9.88147Z" fill="white"/>
<path fill-rule="evenodd" clip-rule="evenodd" d="M5.00488 11.0607L6.21533 8.26123H7.133L8.34228 11.0607H7.53686L7.31468 10.5001H6.01629L5.79294 11.0607H5.00488ZM7.05929 9.89233L6.66353 8.91275L6.2666 9.89233H7.05929Z" fill="#016FD0"/>
<path fill-rule="evenodd" clip-rule="evenodd" d="M8.42676 11.0602V8.26074L9.54664 8.26488L10.198 10.0698L10.8338 8.26074H11.9447V11.0602H11.2411V8.99744L10.4953 11.0602H9.87824L9.13034 8.99744V11.0602H8.42676Z" fill="#016FD0"/>
<path fill-rule="evenodd" clip-rule="evenodd" d="M12.4248 11.0602V8.26074H14.7207V8.88694H13.1358V9.36579H14.6837V9.95515H13.1358V10.4524H14.7207V11.0602H12.4248Z" fill="#016FD0"/>
<path fill-rule="evenodd" clip-rule="evenodd" d="M15.1279 11.0607V8.26123H16.6936C17.2124 8.26123 17.6773 8.58034 17.6773 9.16945C17.6773 9.67305 17.2853 9.99742 16.9054 10.0293L17.8312 11.0607H16.9714L16.1278 10.0661H15.8315V11.0607H15.1279ZM16.6353 8.88739H15.8311V9.47675H16.6457C16.7868 9.47675 16.9686 9.36805 16.9686 9.18207C16.9686 9.03751 16.8282 8.88739 16.6353 8.88739Z" fill="#016FD0"/>
<path fill-rule="evenodd" clip-rule="evenodd" d="M18.6842 11.0602H17.9658V8.26074H18.6842V11.0602Z" fill="#016FD0"/>
<path fill-rule="evenodd" clip-rule="evenodd" d="M20.3872 11.0602H20.2322C19.4819 11.0602 19.0264 10.4722 19.0264 9.67199C19.0264 8.85197 19.4768 8.26074 20.4243 8.26074H21.2019V8.92377H20.3958C20.0112 8.92377 19.7392 9.22235 19.7392 9.67889C19.7392 10.221 20.0502 10.4487 20.4983 10.4487H20.6835L20.3872 11.0602Z" fill="#016FD0"/>
<path fill-rule="evenodd" clip-rule="evenodd" d="M20.708 11.0607L21.9185 8.26123H22.8361L24.0454 11.0607H23.24L23.0178 10.5001H21.7194L21.4961 11.0607H20.708ZM22.7624 9.89233L22.3667 8.91275L21.9697 9.89233H22.7624Z" fill="#016FD0"/>
<path fill-rule="evenodd" clip-rule="evenodd" d="M24.1279 11.0602V8.26074H25.0225L26.1646 10.0196V8.26074H26.8682V11.0602H26.0026L24.8315 9.25529V11.0602H24.1279Z" fill="#016FD0"/>
<path fill-rule="evenodd" clip-rule="evenodd" d="M10.1299 15.9591V13.1597H12.4258V13.7859H10.8409V14.2647H12.3888V14.8541H10.8409V15.3514H12.4258V15.9591H10.1299Z" fill="#016FD0"/>
<path fill-rule="evenodd" clip-rule="evenodd" d="M21.3799 15.9591V13.1597H23.6758V13.7859H22.0909V14.2647H23.6314V14.8541H22.0909V15.3514H23.6758V15.9591H21.3799Z" fill="#016FD0"/>
<path fill-rule="evenodd" clip-rule="evenodd" d="M12.5139 15.9591L13.6318 14.5767L12.4873 13.1597H13.3737L14.0553 14.0356L14.7392 13.1597H15.5909L14.4615 14.5594L15.5814 15.9591H14.6951L14.0333 15.097L13.3876 15.9591H12.5139Z" fill="#016FD0"/>
<path fill-rule="evenodd" clip-rule="evenodd" d="M15.665 15.9596V13.1602H17.2192C17.8569 13.1602 18.2294 13.569 18.2294 14.1018C18.2294 14.7449 17.7544 15.0756 17.1278 15.0756H16.3871V15.9596H15.665ZM17.1677 13.793H16.3877V14.4376H17.1653C17.3708 14.4376 17.5148 14.3021 17.5148 14.1153C17.5148 13.9164 17.3701 13.793 17.1677 13.793Z" fill="#016FD0"/>
<path fill-rule="evenodd" clip-rule="evenodd" d="M18.5361 15.9591V13.1597H20.1018C20.6206 13.1597 21.0855 13.4788 21.0855 14.0679C21.0855 14.5715 20.6936 14.8959 20.3136 14.9278L21.2394 15.9591H20.3796L19.536 14.9646H19.2397V15.9591H18.5361ZM20.0435 13.7857H19.2393V14.375H20.0539C20.195 14.375 20.3768 14.2663 20.3768 14.0804C20.3768 13.9358 20.2365 13.7857 20.0435 13.7857Z" fill="#016FD0"/>
<path fill-rule="evenodd" clip-rule="evenodd" d="M24.0024 15.9591V15.3514H25.4105C25.6189 15.3514 25.7091 15.2394 25.7091 15.1165C25.7091 14.9988 25.6192 14.8799 25.4105 14.8799H24.7742C24.2211 14.8799 23.9131 14.5447 23.9131 14.0414C23.9131 13.5925 24.1952 13.1597 25.0171 13.1597H26.3872L26.091 13.7895H24.906C24.6795 13.7895 24.6097 13.9078 24.6097 14.0207C24.6097 14.1367 24.6959 14.2647 24.8689 14.2647H25.5355C26.1521 14.2647 26.4196 14.6126 26.4196 15.0682C26.4196 15.558 26.1215 15.9591 25.5019 15.9591H24.0024Z" fill="#016FD0"/>
<path fill-rule="evenodd" clip-rule="evenodd" d="M26.5845 15.9591V15.3514H27.9925C28.2009 15.3514 28.2911 15.2394 28.2911 15.1165C28.2911 14.9988 28.2012 14.8799 27.9925 14.8799H27.3562C26.8032 14.8799 26.4951 14.5447 26.4951 14.0414C26.4951 13.5925 26.7772 13.1597 27.5991 13.1597H28.9692L28.673 13.7895H27.488C27.2615 13.7895 27.1918 13.9078 27.1918 14.0207C27.1918 14.1367 27.2779 14.2647 27.451 14.2647H28.1175C28.7341 14.2647 29.0016 14.6126 29.0016 15.0682C29.0016 15.558 28.7035 15.9591 28.084 15.9591H26.5845Z" fill="#016FD0"/>
</svg>
