<svg width="35" height="24" viewBox="0 0 35 24" fill="none" xmlns="http://www.w3.org/2000/svg">
<rect x="1.5" y="0.5" width="32" height="23" rx="3.5" fill="white" stroke="#F0F2EE"/>
<path fill-rule="evenodd" clip-rule="evenodd" d="M22.122 6.6001C22.0104 6.60041 21.8991 6.60421 21.7895 6.61671C21.3608 6.6655 20.9574 6.87978 20.6677 7.21039C20.4528 7.45566 20.3036 7.7594 20.2403 8.08418C20.2091 8.24451 20.2052 8.40526 20.2052 8.56773V9.64616V10.1689V10.3225C20.2052 10.3637 20.1957 10.3669 20.2395 10.3669H20.9255H21.609H22.2966C22.5211 10.3669 22.7474 10.3582 22.9713 10.3792C23.1918 10.4 23.4163 10.465 23.5946 10.6054C23.8454 10.8029 23.9474 11.1435 23.8616 11.4568C23.7794 11.7576 23.5327 11.9593 23.2508 12.043C23.2196 12.0523 23.188 12.0602 23.1562 12.067C23.1377 12.0709 23.1129 12.0702 23.0961 12.0783C23.0878 12.0822 23.0668 12.0872 23.0822 12.1024C23.0861 12.1062 23.1024 12.1061 23.1144 12.106C23.1193 12.106 23.1236 12.106 23.126 12.1062C23.2145 12.115 23.3025 12.1309 23.3883 12.1552C23.6509 12.2293 23.9057 12.3888 24.0274 12.6505C24.1713 12.9602 24.098 13.3438 23.8654 13.5841C23.6822 13.7734 23.4265 13.87 23.1734 13.902C23.0465 13.918 22.9186 13.9147 22.7911 13.9147H22.1034H21.4157H20.7322H20.3884H20.3024C20.2828 13.9147 20.2274 13.9046 20.2113 13.9147C20.2019 13.9206 20.2052 13.9292 20.2052 13.9449V14.603V15.7644V16.938V17.6326C20.2052 17.6396 20.2006 17.6701 20.2052 17.6757C20.2106 17.6823 20.2567 17.6765 20.268 17.6765H20.354H20.6978H21.3814H22.069H22.7545C23.1628 17.6765 23.5516 17.5667 23.8826 17.3103C24.3314 16.9625 24.5965 16.4096 24.5988 15.8294C24.5989 15.8069 24.5989 15.7844 24.5989 15.762V15.7291C24.5989 15.6795 24.5988 15.6297 24.5988 15.58V14.9683C24.5988 14.6722 24.5988 14.3761 24.5988 14.08C24.5988 13.7162 24.5988 13.3525 24.5988 12.9888C24.5988 12.5874 24.5988 12.186 24.5988 11.7846C24.5988 11.3693 24.5988 10.9539 24.5988 10.5385C24.5988 10.138 24.5988 9.7375 24.5988 9.33696C24.5988 8.97979 24.5988 8.62267 24.5988 8.2655C24.5988 7.97576 24.5988 7.68603 24.5988 7.3963V6.8175C24.5988 6.74684 24.5988 6.67618 24.5988 6.60546H24.5917C24.3733 6.60583 24.1547 6.60546 23.9362 6.60546H23.2508H22.5631C22.4273 6.60546 22.2892 6.60046 22.1515 6.6001H22.122ZM21.0654 10.9275C21.0598 10.9402 21.0654 10.9684 21.0654 10.9822V11.4733V11.7029C21.0654 11.722 21.0565 11.7879 21.07 11.7977C21.0815 11.806 21.1315 11.7977 21.1463 11.7977H21.2289H21.3877H21.7031C21.8067 11.7977 21.9105 11.7996 22.014 11.7977C22.1423 11.7953 22.2665 11.757 22.3577 11.6629C22.4609 11.5565 22.4978 11.3999 22.4664 11.2562C22.4521 11.1927 22.4245 11.1331 22.3838 11.0822C22.3057 10.9846 22.1894 10.9305 22.0662 10.9205C22.0077 10.9157 21.9486 10.9179 21.89 10.9179H21.5745H21.253H21.0964C21.088 10.9179 21.0823 10.9171 21.0782 10.9171C21.0719 10.9171 21.0692 10.9189 21.0654 10.9275ZM21.743 12.374H21.0652C21.0652 12.3831 21.0652 12.3921 21.0652 12.4012V12.8924V13.1825V13.2884C21.0652 13.3035 21.0592 13.3354 21.0652 13.3493C21.0743 13.3704 21.1585 13.3585 21.1855 13.3585H21.3571H21.696H22.0368C22.1475 13.3585 22.2538 13.3514 22.3519 13.2906C22.4712 13.2168 22.5525 13.0878 22.5729 12.9442C22.5963 12.7799 22.5432 12.6099 22.4248 12.4984C22.329 12.4082 22.2102 12.375 22.0838 12.374C22.0459 12.3737 22.008 12.3736 21.9702 12.3736C21.8944 12.3736 21.8187 12.374 21.743 12.374Z" fill="url(#paint0_linear_173_10055)"/>
<mask id="mask0_173_10055" style="mask-type:luminance" maskUnits="userSpaceOnUse" x="20" y="6" width="5" height="12">
<path fill-rule="evenodd" clip-rule="evenodd" d="M22.122 6.6001C22.0104 6.60041 21.8991 6.60421 21.7895 6.61671C21.3608 6.6655 20.9574 6.87978 20.6677 7.21039C20.4528 7.45566 20.3036 7.7594 20.2403 8.08418C20.2091 8.24451 20.2052 8.40526 20.2052 8.56773V9.64616V10.1689V10.3225C20.2052 10.3637 20.1957 10.3669 20.2395 10.3669H20.9255H21.609H22.2966C22.5211 10.3669 22.7474 10.3582 22.9713 10.3792C23.1918 10.4 23.4163 10.465 23.5946 10.6054C23.8454 10.8029 23.9474 11.1435 23.8616 11.4568C23.7794 11.7576 23.5327 11.9593 23.2508 12.043C23.2196 12.0523 23.188 12.0602 23.1562 12.067C23.1377 12.0709 23.1129 12.0702 23.0961 12.0783C23.0878 12.0822 23.0668 12.0872 23.0822 12.1024C23.0861 12.1062 23.1024 12.1061 23.1144 12.106C23.1193 12.106 23.1236 12.106 23.126 12.1062C23.2145 12.115 23.3025 12.1309 23.3883 12.1552C23.6509 12.2293 23.9057 12.3888 24.0274 12.6505C24.1713 12.9602 24.098 13.3438 23.8654 13.5841C23.6822 13.7734 23.4265 13.87 23.1734 13.902C23.0465 13.918 22.9186 13.9147 22.7911 13.9147H22.1034H21.4157H20.7322H20.3884H20.3024C20.2828 13.9147 20.2274 13.9046 20.2113 13.9147C20.2019 13.9206 20.2052 13.9292 20.2052 13.9449V14.603V15.7644V16.938V17.6326C20.2052 17.6396 20.2006 17.6701 20.2052 17.6757C20.2106 17.6823 20.2567 17.6765 20.268 17.6765H20.354H20.6978H21.3814H22.069H22.7545C23.1628 17.6765 23.5516 17.5667 23.8826 17.3103C24.3314 16.9625 24.5965 16.4096 24.5988 15.8294C24.5989 15.8069 24.5989 15.7844 24.5989 15.762V15.7291C24.5989 15.6795 24.5988 15.6297 24.5988 15.58V14.9683C24.5988 14.6722 24.5988 14.3761 24.5988 14.08C24.5988 13.7162 24.5988 13.3525 24.5988 12.9888C24.5988 12.5874 24.5988 12.186 24.5988 11.7846C24.5988 11.3693 24.5988 10.9539 24.5988 10.5385C24.5988 10.138 24.5988 9.7375 24.5988 9.33696C24.5988 8.97979 24.5988 8.62267 24.5988 8.2655C24.5988 7.97576 24.5988 7.68603 24.5988 7.3963V6.8175C24.5988 6.74684 24.5988 6.67618 24.5988 6.60546H24.5917C24.3733 6.60583 24.1547 6.60546 23.9362 6.60546H23.2508H22.5631C22.4273 6.60546 22.2892 6.60046 22.1515 6.6001H22.122ZM21.0654 10.9275C21.0598 10.9402 21.0654 10.9684 21.0654 10.9822V11.4733V11.7029C21.0654 11.722 21.0565 11.7879 21.07 11.7977C21.0815 11.806 21.1315 11.7977 21.1463 11.7977H21.2289H21.3877H21.7031C21.8067 11.7977 21.9105 11.7996 22.014 11.7977C22.1423 11.7953 22.2665 11.757 22.3577 11.6629C22.4609 11.5565 22.4978 11.3999 22.4664 11.2562C22.4521 11.1927 22.4245 11.1331 22.3838 11.0822C22.3057 10.9846 22.1894 10.9305 22.0662 10.9205C22.0077 10.9157 21.9486 10.9179 21.89 10.9179H21.5745H21.253H21.0964C21.088 10.9179 21.0823 10.9171 21.0782 10.9171C21.0719 10.9171 21.0692 10.9189 21.0654 10.9275ZM21.743 12.374H21.0652C21.0652 12.3831 21.0652 12.3921 21.0652 12.4012V12.8924V13.1825V13.2884C21.0652 13.3035 21.0592 13.3354 21.0652 13.3493C21.0743 13.3704 21.1585 13.3585 21.1855 13.3585H21.3571H21.696H22.0368C22.1475 13.3585 22.2538 13.3514 22.3519 13.2906C22.4712 13.2168 22.5525 13.0878 22.5729 12.9442C22.5963 12.7799 22.5432 12.6099 22.4248 12.4984C22.329 12.4082 22.2102 12.375 22.0838 12.374C22.0459 12.3737 22.008 12.3736 21.9702 12.3736C21.8944 12.3736 21.8187 12.374 21.743 12.374Z" fill="white"/>
</mask>
<g mask="url(#mask0_173_10055)">
</g>
<path fill-rule="evenodd" clip-rule="evenodd" d="M11.7095 6.62474C11.4537 6.6673 11.2081 6.7682 10.9935 6.91692C10.499 7.25968 10.2031 7.84004 10.2009 8.45076C10.2003 8.63032 10.2009 8.80988 10.2009 8.98949V10.1332V11.4629V12.5597V12.8906V12.9781C10.2009 13.0119 10.2006 13.0048 10.2382 13.0231C10.28 13.0434 10.322 13.0632 10.3642 13.0824C10.7012 13.2354 11.0566 13.3518 11.4233 13.3977C11.687 13.4306 11.9685 13.4398 12.2175 13.332C12.417 13.2457 12.5759 13.0864 12.6576 12.8799C12.7101 12.7471 12.7252 12.6069 12.7252 12.4649V10.8908V10.5364V10.4234C12.7252 10.4121 12.7189 10.3768 12.7252 10.3673C12.733 10.3555 12.7946 10.363 12.8124 10.363H12.9467H13.2116H14.2749V10.3955V11.9494C14.2749 12.1319 14.2753 12.3144 14.2749 12.4968C14.2745 12.7093 14.2441 12.9226 14.1593 13.118C14.0747 13.3127 13.9391 13.4771 13.7714 13.6023C13.3648 13.906 12.826 13.9851 12.3346 14.0079C11.983 14.0242 11.63 14.0101 11.28 13.9743C10.9183 13.9373 10.5523 13.8823 10.2009 13.7852V13.9112V14.7753V16.0359V17.1747V17.537V17.6386C10.2009 17.6441 10.1971 17.6708 10.2009 17.6752C10.2083 17.6834 10.2749 17.6752 10.2881 17.6752H10.3771H10.5594H10.9199H11.6423H12.3651C12.6715 17.6752 12.9858 17.6968 13.2853 17.6193C13.809 17.4837 14.2539 17.1043 14.4805 16.602C14.6048 16.3264 14.6455 16.0333 14.6455 15.7331V15.2384V14.4049V13.3248V12.0954V10.7987V9.5314V8.38997V7.45711V6.82982V6.60025H14.4659H13.7151H12.9641H12.2153C12.1819 6.60025 12.1486 6.6001 12.1153 6.6001C11.9795 6.6001 11.8442 6.60234 11.7095 6.62474Z" fill="url(#paint1_linear_173_10055)"/>
<mask id="mask1_173_10055" style="mask-type:luminance" maskUnits="userSpaceOnUse" x="10" y="6" width="5" height="12">
<path fill-rule="evenodd" clip-rule="evenodd" d="M11.7095 6.62474C11.4537 6.6673 11.2081 6.7682 10.9935 6.91692C10.499 7.25968 10.2031 7.84004 10.2009 8.45076C10.2003 8.63032 10.2009 8.80988 10.2009 8.98949V10.1332V11.4629V12.5597V12.8906V12.9781C10.2009 13.0119 10.2006 13.0048 10.2382 13.0231C10.28 13.0434 10.322 13.0632 10.3642 13.0824C10.7012 13.2354 11.0566 13.3518 11.4233 13.3977C11.687 13.4306 11.9685 13.4398 12.2175 13.332C12.417 13.2457 12.5759 13.0864 12.6576 12.8799C12.7101 12.7471 12.7252 12.6069 12.7252 12.4649V10.8908V10.5364V10.4234C12.7252 10.4121 12.7189 10.3768 12.7252 10.3673C12.733 10.3555 12.7946 10.363 12.8124 10.363H12.9467H13.2116H14.2749V10.3955V11.9494C14.2749 12.1319 14.2753 12.3144 14.2749 12.4968C14.2745 12.7093 14.2441 12.9226 14.1593 13.118C14.0747 13.3127 13.9391 13.4771 13.7714 13.6023C13.3648 13.906 12.826 13.9851 12.3346 14.0079C11.983 14.0242 11.63 14.0101 11.28 13.9743C10.9183 13.9373 10.5523 13.8823 10.2009 13.7852V13.9112V14.7753V16.0359V17.1747V17.537V17.6386C10.2009 17.6441 10.1971 17.6708 10.2009 17.6752C10.2083 17.6834 10.2749 17.6752 10.2881 17.6752H10.3771H10.5594H10.9199H11.6423H12.3651C12.6715 17.6752 12.9858 17.6968 13.2853 17.6193C13.809 17.4837 14.2539 17.1043 14.4805 16.602C14.6048 16.3264 14.6455 16.0333 14.6455 15.7331V15.2384V14.4049V13.3248V12.0954V10.7987V9.5314V8.38997V7.45711V6.82982V6.60025H14.4659H13.7151H12.9641H12.2153C12.1819 6.60025 12.1486 6.6001 12.1153 6.6001C11.9795 6.6001 11.8442 6.60234 11.7095 6.62474Z" fill="white"/>
</mask>
<g mask="url(#mask1_173_10055)">
</g>
<path fill-rule="evenodd" clip-rule="evenodd" d="M16.8709 6.60466C16.6782 6.61726 16.4875 6.6621 16.3089 6.73788C15.9152 6.90517 15.5878 7.21739 15.3949 7.60913C15.2686 7.86563 15.2048 8.15074 15.2036 8.43813C15.2034 8.48463 15.2036 8.53113 15.2036 8.57768V9.3931V10.8427C15.2156 10.832 15.228 10.8215 15.2405 10.8111C15.2846 10.7743 15.3305 10.7399 15.3778 10.7076C15.6722 10.507 16.0158 10.3946 16.3605 10.3282C16.641 10.2742 16.9267 10.251 17.2119 10.2453C17.4924 10.2398 17.7737 10.2497 18.0528 10.2808C18.3375 10.3126 18.6204 10.3621 18.9004 10.424C18.9348 10.4316 18.9691 10.4394 19.0034 10.4474C19.0217 10.4518 19.092 10.4577 19.1018 10.4722C19.1088 10.4826 19.1018 10.524 19.1018 10.5359V10.6854V11.2491C19.062 11.2284 19.0221 11.2081 18.9818 11.1885C18.6772 11.04 18.3561 10.9297 18.0229 10.8755C17.5752 10.8025 17.0687 10.8046 16.6821 11.0808C16.3089 11.3475 16.1783 11.8206 16.2187 12.2706C16.2579 12.7085 16.4927 13.0839 16.888 13.2589C17.2786 13.4319 17.7318 13.4086 18.1408 13.3252C18.4764 13.2568 18.7963 13.1314 19.1018 12.9743V13.03V13.6869C19.1018 13.6991 19.1089 13.7406 19.1018 13.7512C19.0922 13.7653 19.0209 13.7713 19.0034 13.7754C18.932 13.7922 18.8603 13.808 18.7885 13.8228C18.5065 13.8814 18.2215 13.9278 17.9349 13.9543C17.6543 13.9802 17.3709 13.9853 17.0895 13.9743C16.8022 13.9632 16.5146 13.9327 16.2336 13.8685C15.8633 13.7839 15.4946 13.6384 15.2036 13.3809V13.5019V14.3479V15.6102V16.8391V17.5678C15.2036 17.5764 15.1981 17.6123 15.2036 17.6193C15.2156 17.6343 15.3156 17.622 15.339 17.622H15.7038H16.4374H17.167C17.4245 17.622 17.6866 17.6361 17.9435 17.6172C18.4094 17.5829 18.8506 17.3558 19.1577 16.9928C19.4518 16.6451 19.597 16.205 19.597 15.7464V15.335V14.5486V13.4865V12.2471V10.934V9.63503V8.45804V7.49193V6.84006V6.60093H19.4622H18.3296H17.2014C17.148 6.60093 17.0945 6.6001 17.041 6.6001C16.9842 6.6001 16.9274 6.60103 16.8709 6.60466Z" fill="url(#paint2_linear_173_10055)"/>
<mask id="mask2_173_10055" style="mask-type:luminance" maskUnits="userSpaceOnUse" x="15" y="6" width="5" height="12">
<path fill-rule="evenodd" clip-rule="evenodd" d="M16.8709 6.60466C16.6782 6.61726 16.4875 6.6621 16.3089 6.73788C15.9152 6.90517 15.5878 7.21739 15.3949 7.60913C15.2686 7.86563 15.2048 8.15074 15.2036 8.43813C15.2034 8.48463 15.2036 8.53113 15.2036 8.57768V9.3931V10.8427C15.2156 10.832 15.228 10.8215 15.2405 10.8111C15.2846 10.7743 15.3305 10.7399 15.3778 10.7076C15.6722 10.507 16.0158 10.3946 16.3605 10.3282C16.641 10.2742 16.9267 10.251 17.2119 10.2453C17.4924 10.2398 17.7737 10.2497 18.0528 10.2808C18.3375 10.3126 18.6204 10.3621 18.9004 10.424C18.9348 10.4316 18.9691 10.4394 19.0034 10.4474C19.0217 10.4518 19.092 10.4577 19.1018 10.4722C19.1088 10.4826 19.1018 10.524 19.1018 10.5359V10.6854V11.2491C19.062 11.2284 19.0221 11.2081 18.9818 11.1885C18.6772 11.04 18.3561 10.9297 18.0229 10.8755C17.5752 10.8025 17.0687 10.8046 16.6821 11.0808C16.3089 11.3475 16.1783 11.8206 16.2187 12.2706C16.2579 12.7085 16.4927 13.0839 16.888 13.2589C17.2786 13.4319 17.7318 13.4086 18.1408 13.3252C18.4764 13.2568 18.7963 13.1314 19.1018 12.9743V13.03V13.6869C19.1018 13.6991 19.1089 13.7406 19.1018 13.7512C19.0922 13.7653 19.0209 13.7713 19.0034 13.7754C18.932 13.7922 18.8603 13.808 18.7885 13.8228C18.5065 13.8814 18.2215 13.9278 17.9349 13.9543C17.6543 13.9802 17.3709 13.9853 17.0895 13.9743C16.8022 13.9632 16.5146 13.9327 16.2336 13.8685C15.8633 13.7839 15.4946 13.6384 15.2036 13.3809V13.5019V14.3479V15.6102V16.8391V17.5678C15.2036 17.5764 15.1981 17.6123 15.2036 17.6193C15.2156 17.6343 15.3156 17.622 15.339 17.622H15.7038H16.4374H17.167C17.4245 17.622 17.6866 17.6361 17.9435 17.6172C18.4094 17.5829 18.8506 17.3558 19.1577 16.9928C19.4518 16.6451 19.597 16.205 19.597 15.7464V15.335V14.5486V13.4865V12.2471V10.934V9.63503V8.45804V7.49193V6.84006V6.60093H19.4622H18.3296H17.2014C17.148 6.60093 17.0945 6.6001 17.041 6.6001C16.9842 6.6001 16.9274 6.60103 16.8709 6.60466Z" fill="white"/>
</mask>
<g mask="url(#mask2_173_10055)">
</g>
<defs>
<linearGradient id="paint0_linear_173_10055" x1="24.5989" y1="6.12096" x2="20.3517" y2="6.12096" gradientUnits="userSpaceOnUse">
<stop stop-color="#43C311"/>
<stop offset="1" stop-color="#288C00"/>
</linearGradient>
<linearGradient id="paint1_linear_173_10055" x1="10.2107" y1="17.7065" x2="14.7015" y2="17.7065" gradientUnits="userSpaceOnUse">
<stop stop-color="#21469E"/>
<stop offset="1" stop-color="#1E81EB"/>
</linearGradient>
<linearGradient id="paint2_linear_173_10055" x1="19.597" y1="6.6001" x2="15.2012" y2="6.6001" gradientUnits="userSpaceOnUse">
<stop stop-color="#F42D3E"/>
<stop offset="1" stop-color="#9C0017"/>
</linearGradient>
</defs>
</svg>
