<svg width="84" height="26" viewBox="0 0 84 26" fill="none" xmlns="http://www.w3.org/2000/svg">
<path d="M24.3132 3.14581L19.7282 3.95831L22.9249 7.64581L25.2232 7.22915L24.3132 3.14581ZM16.2982 4.56248L13.9999 4.96873L17.2082 8.64581L19.4949 8.23956L16.2982 4.56248ZM10.5815 5.56248L8.2832 5.98956L11.4915 9.66665L13.7782 9.2604L10.5815 5.56248ZM4.85319 6.60415L3.70986 6.80206C3.10364 6.91021 2.57026 7.22873 2.22684 7.68769C1.88342 8.14666 1.75803 8.70854 1.87819 9.24998L2.33319 11.2916L8.04986 10.2812L4.85319 6.60415ZM2.33319 11.2916V21.7083C2.33319 22.8646 3.38319 23.7916 4.66653 23.7916H23.3332C24.6282 23.7916 25.6665 22.8646 25.6665 21.7083V11.2916H2.33319Z" fill="white"/>
<path d="M36.6327 8.103C36.4087 8.151 36.2327 8.239 36.1047 8.367C36.0727 8.399 36.0407 8.455 36.0087 8.535C35.9927 8.599 35.9767 8.647 35.9607 8.679C35.9287 8.727 35.8967 9.007 35.8647 9.519C35.8487 10.031 35.8327 10.639 35.8167 11.343C35.8007 12.047 35.7927 12.783 35.7927 13.551C35.7927 14.303 35.8167 14.959 35.8647 15.519C35.9127 15.983 36.0327 16.439 36.2247 16.887C36.4327 17.319 36.7687 17.599 37.2327 17.727C37.5847 17.759 37.9127 17.711 38.2167 17.583C38.5367 17.439 38.7767 17.207 38.9367 16.887C39.1127 16.519 39.1847 16.135 39.1527 15.735C39.1367 15.319 39.1687 14.911 39.2487 14.511C39.4727 14.543 39.7207 14.551 39.9927 14.535C40.2807 14.519 40.5687 14.511 40.8567 14.511C41.1447 14.511 41.4247 14.519 41.6967 14.535C41.9847 14.551 42.2407 14.591 42.4647 14.655C42.7367 15.487 42.8087 16.319 42.6807 17.151C42.5527 17.967 42.2727 18.703 41.8407 19.359C41.4087 20.015 40.8407 20.559 40.1367 20.991C39.4487 21.407 38.6647 21.623 37.7847 21.639C37.2087 21.719 36.6167 21.719 36.0087 21.639C35.4007 21.575 34.8327 21.423 34.3047 21.183C33.7767 20.927 33.3287 20.575 32.9607 20.127C32.6087 19.679 32.4007 19.119 32.3367 18.447C32.3047 17.871 32.2807 17.271 32.2647 16.647C32.2487 16.023 32.2327 15.327 32.2167 14.559C32.2167 13.775 32.2167 12.895 32.2167 11.919C32.2327 10.927 32.2487 9.783 32.2647 8.487C32.2327 8.215 32.2407 7.943 32.2887 7.671C32.3527 7.383 32.4327 7.119 32.5287 6.879C32.6727 6.463 32.8487 6.079 33.0567 5.727C33.2807 5.375 33.5447 5.063 33.8487 4.791C34.0247 4.663 34.2167 4.559 34.4247 4.479C34.6327 4.383 34.8487 4.303 35.0727 4.239C35.8087 3.999 36.5367 3.903 37.2567 3.951C37.9767 3.999 38.6487 4.167 39.2727 4.455C39.9127 4.727 40.4887 5.095 41.0007 5.559C41.5127 6.023 41.9207 6.559 42.2247 7.167C42.5287 7.759 42.7127 8.407 42.7767 9.111C42.8407 9.815 42.7447 10.535 42.4887 11.271C41.8967 11.399 41.3127 11.447 40.7367 11.415C40.1767 11.367 39.5927 11.287 38.9847 11.175C38.9367 10.871 38.9047 10.527 38.8887 10.143C38.8887 9.759 38.8487 9.407 38.7687 9.087C38.6887 8.751 38.5367 8.479 38.3127 8.271C38.1047 8.063 37.7687 7.967 37.3047 7.983C37.0967 8.015 36.8727 8.055 36.6327 8.103ZM52.9834 4.407C53.2874 4.407 53.5594 4.415 53.7994 4.431L54.4474 21.231C54.1754 21.279 53.8794 21.311 53.5594 21.327C53.2554 21.343 52.9514 21.351 52.6474 21.351C52.3594 21.351 52.0714 21.351 51.7834 21.351C51.5114 21.351 51.2794 21.359 51.0874 21.375H51.0634C50.9834 20.847 50.9274 20.303 50.8954 19.743C50.8794 19.167 50.8634 18.599 50.8474 18.039C50.8474 17.479 50.8394 16.919 50.8234 16.359C50.8074 15.799 50.7674 15.263 50.7034 14.751L50.6794 14.727C50.2154 14.647 49.7514 14.607 49.2874 14.607C48.8234 14.607 48.3594 14.663 47.8954 14.775C47.8474 15.335 47.8234 15.887 47.8234 16.431C47.8394 16.975 47.8554 17.519 47.8714 18.063C47.8874 18.607 47.8874 19.143 47.8714 19.671C47.8714 20.183 47.8314 20.695 47.7514 21.207C47.5594 21.319 47.3034 21.375 46.9834 21.375C46.6634 21.375 46.3434 21.359 46.0234 21.327C45.7034 21.295 45.3994 21.271 45.1114 21.255C44.8394 21.239 44.6314 21.271 44.4874 21.351C44.4554 20.903 44.4154 20.295 44.3674 19.527C44.3354 18.743 44.3034 17.871 44.2714 16.911C44.2394 15.935 44.2074 14.903 44.1754 13.815C44.1594 12.727 44.1434 11.639 44.1274 10.551C44.1114 9.447 44.1034 8.391 44.1034 7.383C44.1194 6.359 44.1354 5.439 44.1514 4.623V4.599H44.1754H44.2234C44.4634 4.647 44.7114 4.663 44.9674 4.647C45.2394 4.631 45.5034 4.615 45.7594 4.599C46.0314 4.583 46.2954 4.575 46.5514 4.575C46.8074 4.575 47.0474 4.607 47.2714 4.671C47.4154 5.775 47.4874 6.847 47.4874 7.887C47.4874 8.927 47.5834 9.959 47.7754 10.983H47.7994C48.1994 11.079 48.6314 11.111 49.0954 11.079C49.5594 11.031 49.9914 10.991 50.3914 10.959H50.4154C50.5114 9.855 50.5594 8.823 50.5594 7.863C50.5754 6.903 50.5594 5.847 50.5114 4.695C50.7034 4.631 50.9354 4.575 51.2074 4.527C51.4954 4.479 51.7914 4.447 52.0954 4.431C52.3994 4.399 52.6954 4.391 52.9834 4.407ZM58.264 4.503C58.648 4.519 59.2 4.519 59.92 4.503H60.496V4.599C60.496 5.975 60.472 7.359 60.424 8.751C60.392 10.143 60.36 11.543 60.328 12.951C60.312 14.343 60.312 15.735 60.328 17.127C60.344 18.519 60.392 19.895 60.472 21.255C60.344 21.383 60.072 21.455 59.656 21.471C59.256 21.503 58.816 21.511 58.336 21.495C57.872 21.479 57.424 21.455 56.992 21.423C56.56 21.407 56.264 21.423 56.104 21.471C56.216 20.031 56.264 18.583 56.248 17.127C56.232 15.671 56.2 14.231 56.152 12.807C56.12 11.367 56.096 9.951 56.08 8.559C56.08 7.151 56.152 5.775 56.296 4.431V4.383C56.376 4.367 56.528 4.375 56.752 4.407C56.992 4.423 57.168 4.431 57.28 4.431C57.568 4.447 57.896 4.471 58.264 4.503ZM72.3463 18.759C72.3463 18.919 72.3543 19.063 72.3703 19.191C72.4023 19.767 72.4183 20.207 72.4183 20.511C72.4183 20.799 72.3943 21.015 72.3463 21.159C72.3143 21.287 72.2503 21.359 72.1543 21.375C72.0583 21.375 71.9223 21.375 71.7463 21.375C71.5703 21.359 71.3383 21.359 71.0503 21.375C70.7783 21.391 70.3063 21.407 69.6343 21.423C68.9783 21.439 68.0663 21.447 66.8983 21.447C65.7463 21.447 64.2023 21.431 62.2663 21.399V20.967C62.3143 19.767 62.3543 18.687 62.3863 17.727C62.4183 16.751 62.4343 15.847 62.4343 15.015C62.4503 14.167 62.4583 13.351 62.4583 12.567C62.4583 11.783 62.4503 10.983 62.4343 10.167C62.4183 9.351 62.4023 8.487 62.3863 7.575C62.3703 6.647 62.3543 5.623 62.3383 4.503C62.4983 4.439 62.7463 4.391 63.0823 4.359C63.4183 4.311 63.7783 4.287 64.1623 4.287C64.5463 4.287 64.9223 4.311 65.2903 4.359C65.6583 4.407 65.9543 4.479 66.1783 4.575C66.1463 5.615 66.1303 6.687 66.1303 7.791C66.1463 8.879 66.1623 9.975 66.1783 11.079C66.1943 12.183 66.2023 13.287 66.2023 14.391C66.2183 15.479 66.2183 16.535 66.2023 17.559V17.583C66.3143 17.551 66.5223 17.543 66.8263 17.559C67.1463 17.559 67.5143 17.567 67.9303 17.583C68.3463 17.599 68.7863 17.623 69.2503 17.655C69.7303 17.671 70.1783 17.687 70.5943 17.703C71.0263 17.719 71.4023 17.735 71.7223 17.751C72.0583 17.751 72.2903 17.743 72.4183 17.727C72.4183 17.903 72.4103 18.079 72.3943 18.255C72.3783 18.415 72.3623 18.583 72.3463 18.759ZM83.4088 18.759C83.4088 18.919 83.4168 19.063 83.4328 19.191C83.4648 19.767 83.4808 20.207 83.4808 20.511C83.4808 20.799 83.4568 21.015 83.4088 21.159C83.3768 21.287 83.3128 21.359 83.2168 21.375C83.1208 21.375 82.9848 21.375 82.8088 21.375C82.6328 21.359 82.4008 21.359 82.1128 21.375C81.8408 21.391 81.3688 21.407 80.6968 21.423C80.0408 21.439 79.1288 21.447 77.9608 21.447C76.8088 21.447 75.2648 21.431 73.3288 21.399V20.967C73.3768 19.767 73.4168 18.687 73.4488 17.727C73.4808 16.751 73.4968 15.847 73.4968 15.015C73.5128 14.167 73.5208 13.351 73.5208 12.567C73.5208 11.783 73.5128 10.983 73.4968 10.167C73.4808 9.351 73.4648 8.487 73.4488 7.575C73.4328 6.647 73.4168 5.623 73.4008 4.503C73.5608 4.439 73.8088 4.391 74.1448 4.359C74.4808 4.311 74.8408 4.287 75.2248 4.287C75.6088 4.287 75.9848 4.311 76.3528 4.359C76.7208 4.407 77.0168 4.479 77.2408 4.575C77.2088 5.615 77.1928 6.687 77.1928 7.791C77.2088 8.879 77.2248 9.975 77.2408 11.079C77.2568 12.183 77.2648 13.287 77.2648 14.391C77.2808 15.479 77.2808 16.535 77.2648 17.559V17.583C77.3768 17.551 77.5848 17.543 77.8888 17.559C78.2088 17.559 78.5768 17.567 78.9928 17.583C79.4088 17.599 79.8488 17.623 80.3128 17.655C80.7928 17.671 81.2408 17.687 81.6568 17.703C82.0888 17.719 82.4648 17.735 82.7848 17.751C83.1208 17.751 83.3528 17.743 83.4808 17.727C83.4808 17.903 83.4728 18.079 83.4568 18.255C83.4408 18.415 83.4248 18.583 83.4088 18.759Z" fill="white"/>
</svg>
