<svg width="20" height="18" viewBox="0 0 20 18" fill="none" xmlns="http://www.w3.org/2000/svg">
<path d="M17.3667 1.63501L14.0917 2.22001L16.375 4.87501L18.0167 4.57501L17.3667 1.63501ZM11.6417 2.65501L10 2.94751L12.2917 5.59501L13.925 5.30251L11.6417 2.65501ZM7.55834 3.37501L5.91667 3.68251L8.20834 6.33001L9.84167 6.03751L7.55834 3.37501ZM3.46667 4.12501L2.65 4.26751C2.21699 4.34537 1.83601 4.57471 1.59071 4.90516C1.34541 5.23562 1.25584 5.64017 1.34167 6.03001L1.66667 7.50001L5.75 6.77251L3.46667 4.12501ZM1.66667 7.50001V15C1.66667 15.8325 2.41667 16.5 3.33334 16.5H16.6667C17.5917 16.5 18.3333 15.8325 18.3333 15V7.50001H1.66667Z" fill="white"/>
</svg>
