<svg width="34" height="24" viewBox="0 0 34 24" fill="none" xmlns="http://www.w3.org/2000/svg">
<rect width="33.6" height="24" rx="4" fill="#262626"/>
<g opacity="0.01">
<rect x="4.80078" y="4.2002" width="24" height="15.6544" fill="white"/>
</g>
<rect x="13.6367" y="6.92725" width="6.33107" height="10.1979" fill="#FF5F00"/>
<path fill-rule="evenodd" clip-rule="evenodd" d="M14.2877 12.0273C14.2861 10.0376 15.2122 8.15773 16.7993 6.92927C14.1031 4.83962 10.2314 5.144 7.90497 7.62849C5.57855 10.113 5.57855 13.9434 7.90497 16.4279C10.2314 18.9124 14.1031 19.2168 16.7993 17.1272C15.2117 15.8983 14.2855 14.0176 14.2877 12.0273Z" fill="#EB001B"/>
<path fill-rule="evenodd" clip-rule="evenodd" d="M27.2881 15.7939V16.3054H27.2378V15.9182L27.1595 16.2506H27.1052L27.0269 15.9182V16.3054H26.9746V15.7939H27.0469L27.1313 16.1593L27.2157 15.7939H27.2881ZM26.8242 15.8817V16.3054H26.78V15.8817H26.6855V15.794H26.9247V15.8817H26.8242Z" fill="#F79E1B"/>
<path fill-rule="evenodd" clip-rule="evenodd" d="M27.4409 12.0274C27.4408 14.5104 26.0032 16.7753 23.7386 17.8604C21.474 18.9454 18.78 18.66 16.8008 17.1254C18.3871 15.8959 19.3134 14.0163 19.3134 12.0265C19.3134 10.0367 18.3871 8.15704 16.8008 6.92753C18.78 5.39291 21.474 5.10752 23.7386 6.19257C26.0032 7.27761 27.4408 9.54259 27.4409 12.0256V12.0274Z" fill="#F79E1B"/>
</svg>
