<svg width="47" height="47" viewBox="0 0 47 47" fill="none" xmlns="http://www.w3.org/2000/svg">
<path d="M19.0604 33.955V13.33L32.8104 23.6425M23.6437 0.72583C20.6343 0.72583 17.6543 1.31859 14.8739 2.47026C12.0935 3.62193 9.5672 5.30996 7.43919 7.43797C3.14148 11.7357 0.727051 17.5646 0.727051 23.6425C0.727051 29.7204 3.14148 35.5493 7.43919 39.847C9.5672 41.975 12.0935 43.6631 14.8739 44.8147C17.6543 45.9664 20.6343 46.5592 23.6437 46.5592C29.7216 46.5592 35.5505 44.1447 39.8482 39.847C44.146 35.5493 46.5604 29.7204 46.5604 23.6425C46.5604 20.633 45.9676 17.653 44.816 14.8727C43.6643 12.0923 41.9763 9.56598 39.8482 7.43797C37.7202 5.30996 35.1939 3.62193 32.4135 2.47026C29.6332 1.31859 26.6532 0.72583 23.6437 0.72583Z" fill="white"/>
</svg>
