<svg width="48" height="48" viewBox="0 0 48 48" fill="none" xmlns="http://www.w3.org/2000/svg">
<path d="M6 8H40C41.0609 8 42.0783 8.42143 42.8284 9.17157C43.5786 9.92172 44 10.9391 44 12V16H36V12H10V36H28V40H6C4.93913 40 3.92172 39.5786 3.17157 38.8284C2.42143 38.0783 2 37.0609 2 36V12C2 10.9391 2.42143 9.92172 3.17157 9.17157C3.92172 8.42143 4.93913 8 6 8ZM34 20H46C46.5304 20 47.0391 20.2107 47.4142 20.5858C47.7893 20.9609 48 21.4696 48 22V42C48 42.5304 47.7893 43.0391 47.4142 43.4142C47.0391 43.7893 46.5304 44 46 44H34C33.4696 44 32.9609 43.7893 32.5858 43.4142C32.2107 43.0391 32 42.5304 32 42V22C32 21.4696 32.2107 20.9609 32.5858 20.5858C32.9609 20.2107 33.4696 20 34 20ZM36 24V38H44V24H36Z" fill="white"/>
</svg>
