<svg width="16" height="16" viewBox="0 0 16 16" fill="currentColor" xmlns="http://www.w3.org/2000/svg">
<path d="M7.99996 2.66669C8.7072 2.66669 9.38548 2.94764 9.88558 3.44774C10.3857 3.94783 10.6666 4.62611 10.6666 5.33335C10.6666 6.0406 10.3857 6.71888 9.88558 7.21897C9.38548 7.71907 8.7072 8.00002 7.99996 8.00002C7.29272 8.00002 6.61444 7.71907 6.11434 7.21897C5.61424 6.71888 5.33329 6.0406 5.33329 5.33335C5.33329 4.62611 5.61424 3.94783 6.11434 3.44774C6.61444 2.94764 7.29272 2.66669 7.99996 2.66669ZM7.99996 9.33335C10.9466 9.33335 13.3333 10.5267 13.3333 12V13.3334H2.66663V12C2.66663 10.5267 5.05329 9.33335 7.99996 9.33335Z" fill="#fff"/>
</svg>
