<svg width="34" height="24" viewBox="0 0 34 24" fill="none" xmlns="http://www.w3.org/2000/svg">
<rect x="0.5" y="0.5" width="33" height="23" rx="3.5" fill="white"/>
<rect x="0.5" y="0.5" width="33" height="23" rx="3.5" stroke="#E0E3DE"/>
<path fill-rule="evenodd" clip-rule="evenodd" d="M10.751 15.8583H8.69129L7.14674 9.79247C7.07343 9.51344 6.91776 9.26676 6.68879 9.1505C6.11737 8.85833 5.4877 8.6258 4.80078 8.50853V8.27499H8.11886C8.57681 8.27499 8.92026 8.6258 8.97751 9.03323L9.77891 13.4087L11.8376 8.27499H13.8401L10.751 15.8583ZM14.9843 15.8583H13.0391L14.6409 8.27499H16.5861L14.9843 15.8583ZM19.1043 10.3758C19.1615 9.96738 19.505 9.73384 19.9057 9.73384C20.5354 9.6752 21.2213 9.79248 21.7937 10.0836L22.1371 8.45091C21.5647 8.21737 20.935 8.1001 20.3636 8.1001C18.4756 8.1001 17.1018 9.1505 17.1018 10.6083C17.1018 11.7174 18.0749 12.2997 18.7618 12.6505C19.505 13.0003 19.7912 13.2338 19.734 13.5836C19.734 14.1083 19.1615 14.3419 18.5901 14.3419C17.9032 14.3419 17.2163 14.167 16.5876 13.8748L16.2441 15.5086C16.9311 15.7997 17.6742 15.917 18.3611 15.917C20.4781 15.9746 21.7937 14.9252 21.7937 13.3501C21.7937 11.3666 19.1043 11.2503 19.1043 10.3758ZM28.6015 15.8583L27.0569 8.27499H25.3979C25.0544 8.27499 24.711 8.50853 24.5965 8.85833L21.7363 15.8583H23.7388L24.1385 14.7503H26.599L26.8279 15.8583H28.6015ZM25.6827 10.3172L26.2541 13.1752H24.6523L25.6827 10.3172Z" fill="#172B85"/>
</svg>
